<?xml version="1.0" encoding="utf-8"?>
<svg version="1.1" id="Layer_1"
xmlns="http://www.w3.org/2000/svg"
xmlns:xlink="http://www.w3.org/1999/xlink"
width="253px" height="263px"
xml:space="preserve">
<g id="PathID_1" transform="matrix(2.9499, 0, 0, 2.9499, 83.95, 154.15)" opacity="1">
<path style="fill:#0095DA;fill-opacity:0.6" d="M4.35 -4.3Q6.15 -2.5 6.15 0.05Q6.15 2.5 4.35 4.3Q2.55 6.1 0 6.1Q-2.5 6.1 -4.3 4.3Q-6.1 2.5 -6.1 0.05Q-6.1 -2.5 -4.3 -4.3Q-2.5 -6.1 0 -6.1Q2.55 -6.1 4.35 -4.3" />
</g>
<g id="PathID_2" transform="matrix(0.79857, 0, 0, 0.79857, 11.85, 241.8)" opacity="1">
<path style="fill:#161676;fill-opacity:1" d="M43.6 -34.7Q43.15 -33.1 42.95 -31.35Q42.75 -29.65 42.75 -27.65Q42.75 -19.55 43.75 -12.85Q44.8 -6.15 46.8 -1.25Q45.6 -0.6 44.55 -0.3Q43.5 0 42.5 0Q41.45 0 40.85 -0.45Q40.25 -0.9 39.95 -1.9Q39.8 -2.5 39.4 -11Q39 -19.55 38.3 -27.7Q33.05 -17.85 27.3 -6.1L25.85 -3.15Q25.35 -2.2 24.9 -1.8Q24.45 -1.45 23.85 -1.45Q22.65 -1.45 21.35 -4.15L20.9 -5.15L14.05 -18.85Q11.25 -24.35 9.45 -27.6Q9.05 -21.25 8.65 -12.05Q8.25 -2.9 7.75 -1.45Q7.5 -0.7 7 -0.35Q6.5 0 5.65 0Q5 0 4.05 -0.3Q3.15 -0.6 1.9 -1.25Q3.85 -6.15 4.85 -12.85Q5.9 -19.6 5.9 -27.8Q5.9 -29.75 5.65 -31.45Q5.45 -33.15 5.05 -34.7Q5.9 -35.45 6.55 -35.75Q7.25 -36.1 8.05 -36.1Q10.45 -36.1 15.8 -25L19.1 -18.35Q21.9 -12.75 22.95 -10.95Q24 -9.15 24.3 -9.15Q25 -9.15 31.15 -21.65L35.2 -29.9Q36.85 -33.25 38.1 -34.65Q39.4 -36.1 40.65 -36.1Q41.35 -36.1 42.05 -35.75Q42.75 -35.45 43.6 -34.7" />
</g>
<g id="PathID_3" transform="matrix(0.79857, 0, 0, 0.79857, 48.9, 241.8)" opacity="1">
<path style="fill:#161676;fill-opacity:1" d="M29 -31.05Q27.65 -31.7 26.05 -32Q24.5 -32.3 22.65 -32.3Q15.55 -32.3 11.15 -28.4Q6.8 -24.5 6.8 -18.2Q6.8 -12 10.9 -8Q15.05 -4 21.5 -4Q23.5 -4 25.3 -4.45Q27.1 -4.95 28.9 -5.95Q29.65 -4.95 30 -4.2Q30.35 -3.5 30.35 -2.85Q30.35 -1.3 28.15 -0.45Q25.95 0.4 22 0.4Q17.8 0.4 14.2 -0.75Q10.65 -1.9 8.05 -4.1Q4.85 -6.75 3.25 -10.15Q1.7 -13.55 1.7 -17.7Q1.7 -22.1 3.6 -25.75Q5.55 -29.4 9.4 -32.3Q12.25 -34.4 16.15 -35.55Q20.05 -36.75 24.3 -36.75Q27.6 -36.75 28.95 -36.2Q30.3 -35.65 30.3 -34.3Q30.3 -33.7 29.95 -32.9Q29.65 -32.15 29 -31.05" />
</g>
<g id="PathID_4" transform="matrix(0.79857, 0, 0, 0.79857, 73.95, 241.8)" opacity="1">
<path style="fill:#161676;fill-opacity:1" d="M15.3 -2.95Q19.35 -2.95 21.95 -5.65Q24.55 -8.35 24.55 -12.6Q24.55 -16.75 22 -19.35Q19.45 -22 15.4 -22Q11.25 -22 8.7 -19.25Q6.2 -16.55 6.2 -12.1Q6.2 -8.1 8.75 -5.5Q11.35 -2.95 15.3 -2.95M15 0.65Q9.2 0.65 5.55 -2.9Q1.9 -6.5 1.9 -12.1Q1.9 -18.05 5.8 -21.75Q9.7 -25.5 15.9 -25.5Q21.55 -25.5 25.2 -21.95Q28.85 -18.4 28.85 -13Q28.85 -10.85 28.15 -8.7Q27.45 -6.6 26.25 -5.1Q24.05 -2.2 21.2 -0.75Q18.4 0.65 15 0.65" />
</g>
<g id="PathID_5" transform="matrix(0.79857, 0, 0, 0.79857, 96.65, 241.8)" opacity="1">
<path style="fill:#161676;fill-opacity:1" d="M7.7 -19.7Q9.6 -22.3 11.3 -23.6Q13 -24.9 14.65 -24.9Q16.05 -24.9 17.05 -24Q18.05 -23.1 18.05 -21.8Q18.05 -20.95 17.45 -20.15Q16.9 -19.35 15.8 -18.55Q15.4 -19.65 14.8 -20.15Q14.2 -20.7 13.4 -20.7Q12.15 -20.7 10.8 -19.45Q9.45 -18.25 8.15 -15.95L7.95 -13.65L7.9 -11.4Q7.9 -7.65 8.3 -5.15Q8.7 -2.65 9.6 -1.05Q8.55 -0.55 7.6 -0.25Q6.65 0 5.7 0Q4.45 0 4 -0.6Q3.55 -1.2 3.55 -3.05L3.8 -8.25Q4.1 -12.75 4.1 -16.65Q4.1 -19.8 3.8 -21.5Q3.55 -23.2 3 -24.55L3.95 -24.8Q4.45 -24.9 5 -24.9Q6.45 -24.9 7.15 -24.2Q7.9 -23.5 7.9 -22.1L7.85 -21.2L7.7 -19.7" />
</g>
<g id="PathID_6" transform="matrix(0.79857, 0, 0, 0.79857, 109.6, 241.8)" opacity="1">
<path style="fill:#161676;fill-opacity:1" d="M8.2 -19.2L8.05 -13.25L8 -9.7Q8 -6.45 8.3 -4.4Q8.6 -2.4 9.25 -1.05Q8.15 -0.5 7.25 -0.25Q6.4 0 5.55 0Q4.4 0 3.95 -0.65Q3.55 -1.3 3.55 -3.35L3.8 -8Q4.1 -12.2 4.1 -15.9Q4.1 -19.45 3.8 -21.35Q3.5 -23.3 2.9 -24.8L4 -25.1L5.1 -25.2Q6.45 -25.2 7.2 -24.45Q8 -23.7 8.1 -22.35Q10 -23.7 12.1 -24.45Q14.2 -25.2 16.25 -25.2Q18.75 -25.2 20.7 -24.1Q22.7 -23 23.75 -21.1Q24.5 -19.75 24.8 -18Q25.1 -16.25 25.1 -12.65L25.05 -10.85L25.05 -8.45Q25.05 -5.85 25.35 -4Q25.7 -2.15 26.4 -1.1Q25.2 -0.55 24.3 -0.25Q23.45 0 22.75 0Q21.55 0 21.1 -0.6Q20.65 -1.2 20.65 -2.9L20.8 -7.3Q21 -10.7 21 -13.1Q21 -17.6 19.6 -19.65Q18.25 -21.7 15.2 -21.7Q13.65 -21.7 11.85 -21.05Q10.05 -20.4 8.2 -19.2" />
</g>
<g id="PathID_7" transform="matrix(0.79857, 0, 0, 0.79857, 130.75, 241.8)" opacity="1">
<path style="fill:#161676;fill-opacity:1" d="M6.3 -15.05Q7.95 -14.8 9.9 -14.65Q11.9 -14.55 14.2 -14.55Q17.35 -14.55 18.4 -15.1Q19.45 -15.65 19.45 -17.15Q19.45 -19.45 17.85 -20.75Q16.3 -22.1 13.55 -22.1Q10.65 -22.1 8.7 -20.25Q6.8 -18.4 6.3 -15.05M20.8 -5.25Q21.35 -4.6 21.6 -4Q21.9 -3.4 21.9 -2.85Q21.9 -1.5 19.85 -0.65Q17.85 0.2 14.6 0.2Q8.65 0.2 5.25 -3.05Q1.9 -6.3 1.9 -12.05Q1.9 -17.85 5.3 -21.55Q8.7 -25.25 14.05 -25.25Q18.2 -25.25 20.85 -22.85Q23.5 -20.5 23.5 -16.85Q23.5 -14 21.3 -12.75Q19.1 -11.55 13.8 -11.55L9.85 -11.65Q7.9 -11.8 6 -12.1L6 -11.75Q6 -7.85 8.25 -5.6Q10.55 -3.35 14.5 -3.35Q16.35 -3.35 17.9 -3.8Q19.5 -4.3 20.8 -5.25" />
</g>
<g id="PathID_8" transform="matrix(0.79857, 0, 0, 0.79857, 149, 241.8)" opacity="1">
<path style="fill:#161676;fill-opacity:1" d="M9.75 -1.1Q8.7 -0.55 7.8 -0.25Q6.9 0 6.1 0Q4.9 0 4.45 -0.65Q4 -1.35 4 -3.25Q4 -5.65 4.25 -12.3Q4.55 -18.95 4.55 -23.3Q4.55 -28.65 4.2 -31.4Q3.85 -34.15 3.1 -35.6Q4.1 -36.2 5 -36.45Q5.95 -36.75 6.75 -36.75Q8 -36.75 8.45 -36.1Q8.95 -35.5 8.95 -33.55Q8.95 -31.95 8.65 -25.15Q8.4 -18.35 8.4 -13.2Q8.4 -7.65 8.7 -5.1Q9 -2.55 9.75 -1.1" />
</g>
<g id="PathID_9" transform="matrix(0.79857, 0, 0, 0.79857, 157.75, 241.8)" opacity="1">
<path style="fill:#161676;fill-opacity:1" d="M10.6 -2.95Q10.6 -1.6 9.5 -0.65Q8.45 0.3 6.85 0.3Q5.45 0.3 4.55 -0.55Q3.65 -1.4 3.65 -2.8Q3.65 -4.3 4.65 -5.25Q5.65 -6.2 7.3 -6.2Q8.8 -6.2 9.7 -5.3Q10.6 -4.45 10.6 -2.95" />
</g>
<g id="PathID_10" transform="matrix(0.79857, 0, 0, 0.79857, 167.55, 241.8)" opacity="1">
<path style="fill:#161676;fill-opacity:1" d="M19.05 -20.15Q18.05 -20.75 17.1 -21Q16.2 -21.3 15.1 -21.3Q11.3 -21.3 8.75 -18.55Q6.25 -15.85 6.25 -11.65Q6.25 -7.9 8.45 -5.7Q10.7 -3.5 14.55 -3.5Q16.2 -3.5 17.55 -3.95Q18.9 -4.4 20.05 -5.35Q20.5 -4.7 20.75 -4.1Q21 -3.55 21 -3Q21 -1.45 19.15 -0.5Q17.35 0.4 14.2 0.4Q8.75 0.4 5.3 -2.7Q1.9 -5.85 1.9 -10.9Q1.9 -17 6.05 -21.15Q10.2 -25.3 16.1 -25.3Q18.3 -25.3 19.35 -24.65Q20.45 -24.05 20.45 -22.75Q20.45 -22.1 20.1 -21.5Q19.75 -20.9 19.05 -20.15" />
</g>
<g id="PathID_11" transform="matrix(0.79857, 0, 0, 0.79857, 183.05, 241.8)" opacity="1">
<path style="fill:#161676;fill-opacity:1" d="M15.3 -2.95Q19.35 -2.95 21.95 -5.65Q24.55 -8.35 24.55 -12.6Q24.55 -16.75 22 -19.35Q19.45 -22 15.4 -22Q11.25 -22 8.7 -19.25Q6.2 -16.55 6.2 -12.1Q6.2 -8.1 8.75 -5.5Q11.35 -2.95 15.3 -2.95M15 0.65Q9.2 0.65 5.55 -2.9Q1.9 -6.5 1.9 -12.1Q1.9 -18.05 5.8 -21.75Q9.7 -25.5 15.9 -25.5Q21.55 -25.5 25.2 -21.95Q28.85 -18.4 28.85 -13Q28.85 -10.85 28.15 -8.7Q27.45 -6.6 26.25 -5.1Q24.05 -2.2 21.2 -0.75Q18.4 0.65 15 0.65" />
</g>
<g id="PathID_12" transform="matrix(0.79857, 0, 0, 0.79857, 205.75, 241.8)" opacity="1">
<path style="fill:#161676;fill-opacity:1" d="M2.9 -24.75Q3.5 -24.95 4 -25L5.1 -25.1Q6.45 -25.1 7.2 -24.4Q8 -23.7 8.1 -22.35Q10.1 -23.7 11.95 -24.35Q13.85 -25 15.75 -25Q17.55 -25 19.15 -24.25Q20.8 -23.55 22.2 -22.15Q24.15 -23.55 26.4 -24.35Q28.65 -25.2 30.7 -25.2Q35.15 -25.2 37.55 -22.55Q39.95 -19.95 39.95 -15.1L39.85 -12.3L39.8 -8.85Q39.8 -5.65 40.1 -3.9Q40.4 -2.15 41.1 -1.1Q39.8 -0.5 38.95 -0.25Q38.1 0 37.45 0Q36.25 0 35.8 -0.55Q35.4 -1.15 35.4 -2.85Q35.4 -4.4 35.6 -7.8Q35.8 -11.25 35.8 -13.1Q35.8 -17.6 34.4 -19.6Q33.05 -21.6 30.05 -21.6Q28.4 -21.6 26.85 -21.1Q25.3 -20.6 23.55 -19.45Q23.8 -17.9 23.9 -16.25Q24.05 -14.6 24.05 -11.6L24.05 -9Q24.05 -5.55 24.3 -3.85Q24.55 -2.2 25.2 -1.05Q24.05 -0.45 23.2 -0.2Q22.35 0 21.55 0Q20.45 0 20 -0.6Q19.55 -1.2 19.55 -2.9L19.7 -6.95Q19.85 -10.1 19.85 -12.35Q19.85 -17.65 18.65 -19.55Q17.45 -21.45 14.55 -21.45Q13.05 -21.45 11.45 -20.85Q9.9 -20.25 8.2 -19.1L8.05 -13.75L8 -9.8Q8 -6.45 8.3 -4.4Q8.6 -2.4 9.25 -1.05Q8.15 -0.5 7.25 -0.25Q6.4 0 5.55 0Q4.4 0 3.95 -0.6Q3.55 -1.25 3.55 -3.35L3.85 -8.3Q4.15 -12.65 4.15 -16.45Q4.15 -19.4 3.85 -21.4Q3.55 -23.4 2.9 -24.75" />
</g>
<g id="PathID_13" transform="matrix(2.52528, 0, 0, 2.52528, 121, 169.65)" opacity="1">
<path style="fill:#0095DA;fill-opacity:0.6" d="M4.35 -4.3Q6.15 -2.5 6.15 0.05Q6.15 2.5 4.35 4.3Q2.55 6.1 0 6.1Q-2.5 6.1 -4.3 4.3Q-6.1 2.5 -6.1 0.05Q-6.1 -2.5 -4.3 -4.3Q-2.5 -6.1 0 -6.1Q2.55 -6.1 4.35 -4.3" />
</g>
<g id="PathID_14" transform="matrix(2.36887, 0, 0, 2.36887, 157.75, 163.7)" opacity="1">
<path style="fill:#0095DA;fill-opacity:0.6" d="M4.35 -4.3Q6.15 -2.5 6.15 0.05Q6.15 2.5 4.35 4.3Q2.55 6.1 0 6.1Q-2.5 6.1 -4.3 4.3Q-6.1 2.5 -6.1 0.05Q-6.1 -2.5 -4.3 -4.3Q-2.5 -6.1 0 -6.1Q2.55 -6.1 4.35 -4.3" />
</g>
<g id="PathID_15" transform="matrix(1.07269, 0, 0, 1.07269, 166.9, 57.85)" opacity="1">
<path style="fill:#0095DA;fill-opacity:0.6" d="M4.35 -4.3Q6.15 -2.5 6.15 0.05Q6.15 2.5 4.35 4.3Q2.55 6.1 0 6.1Q-2.5 6.1 -4.3 4.3Q-6.1 2.5 -6.1 0.05Q-6.1 -2.5 -4.3 -4.3Q-2.5 -6.1 0 -6.1Q2.55 -6.1 4.35 -4.3" />
</g>
<g id="PathID_16" transform="matrix(2.23479, 0, 0, 2.23479, 148.8, 35.1)" opacity="1">
<path style="fill:#0095DA;fill-opacity:0.6" d="M2.5 -2.5Q3.55 -1.45 3.55 0.05Q3.55 1.45 2.5 2.5Q1.5 3.55 0 3.55Q-1.45 3.55 -2.5 2.5Q-3.55 1.45 -3.55 0.05Q-3.55 -1.45 -2.5 -2.5Q-1.45 -3.55 0 -3.55Q1.5 -3.55 2.5 -2.5" />
</g>
<g id="PathID_17" transform="matrix(2.056, 0, 0, 2.056, 133.6, 177.05)" opacity="1">
<path style="fill:#0095DA;fill-opacity:0.6" d="M2.5 -2.5Q3.55 -1.45 3.55 0.05Q3.55 1.45 2.5 2.5Q1.5 3.55 0 3.55Q-1.45 3.55 -2.5 2.5Q-3.55 1.45 -3.55 0.05Q-3.55 -1.45 -2.5 -2.5Q-1.45 -3.55 0 -3.55Q1.5 -3.55 2.5 -2.5" />
</g>
<g id="PathID_18" transform="matrix(0.209558, 0, 0, 0.209558, 88.45, 70.5)" opacity="1">
<path style="fill:#0095DA;fill-opacity:0.6" d="M16.85 -16.9Q23.85 -9.9 23.85 0Q23.85 9.9 16.85 16.85Q9.9 23.85 0 23.85Q-9.9 23.85 -16.9 16.85Q-23.85 9.9 -23.85 0Q-23.85 -9.9 -16.9 -16.9Q-9.9 -23.85 0 -23.85Q9.9 -23.85 16.85 -16.9" />
</g>
<g id="PathID_19" transform="matrix(3.28511, 0, 0, 3.28511, 96.3, 48.6)" opacity="1">
<path style="fill:#0095DA;fill-opacity:0.6" d="M3.05 -3Q4.3 -1.75 4.3 0.05Q4.3 1.75 3.05 3Q1.8 4.25 0 4.25Q-1.75 4.25 -3 3Q-4.25 1.75 -4.25 0.05Q-4.25 -1.75 -3 -3Q-1.75 -4.25 0 -4.25Q1.8 -4.25 3.05 -3" />
</g>
<g id="PathID_20" transform="matrix(2.41354, 0, 0, 2.41354, 55.85, 102.9)" opacity="1">
<path style="fill:#0095DA;fill-opacity:0.6" d="M2.65 -2.6Q3.75 -1.5 3.75 0.05Q3.75 1.5 2.65 2.6Q1.55 3.7 0 3.7Q-1.5 3.7 -2.6 2.6Q-3.7 1.5 -3.7 0.05Q-3.7 -1.5 -2.6 -2.6Q-1.5 -3.7 0 -3.7Q1.55 -3.7 2.65 -2.6" />
</g>
<g id="PathID_21" transform="matrix(2.23479, 0, 0, 2.23479, 68.45, 134.35)" opacity="1">
<path style="fill:#0095DA;fill-opacity:0.6" d="M3.45 -3.4Q4.85 -1.95 4.85 0.05Q4.85 1.95 3.45 3.4Q2 4.8 0 4.8Q-1.95 4.8 -3.4 3.4Q-4.8 1.95 -4.8 0.05Q-4.8 -1.95 -3.4 -3.4Q-1.95 -4.8 0 -4.8Q2 -4.8 3.45 -3.4" />
</g>
<g id="PathID_22" transform="matrix(2.23479, 0, 0, 2.23479, 76.2, 121)" opacity="1">
<path style="fill:#0095DA;fill-opacity:0.6" d="M2.65 -2.6Q3.75 -1.5 3.75 0.05Q3.75 1.5 2.65 2.6Q1.55 3.7 0 3.7Q-1.5 3.7 -2.6 2.6Q-3.7 1.5 -3.7 0.05Q-3.7 -1.5 -2.6 -2.6Q-1.5 -3.7 0 -3.7Q1.55 -3.7 2.65 -2.6" />
</g>
<g id="PathID_23" transform="matrix(2.23479, 0, 0, 2.23479, 64.2, 144.6)" opacity="1">
<path style="fill:#0095DA;fill-opacity:0.6" d="M2.65 -2.6Q3.75 -1.5 3.75 0.05Q3.75 1.5 2.65 2.6Q1.55 3.7 0 3.7Q-1.5 3.7 -2.6 2.6Q-3.7 1.5 -3.7 0.05Q-3.7 -1.5 -2.6 -2.6Q-1.5 -3.7 0 -3.7Q1.55 -3.7 2.65 -2.6" />
</g>
<g id="PathID_24" transform="matrix(2.23479, 0, 0, 2.23479, 96.5, 171.85)" opacity="1">
<path style="fill:#0095DA;fill-opacity:0.6" d="M2.65 -2.6Q3.75 -1.5 3.75 0.05Q3.75 1.5 2.65 2.6Q1.55 3.7 0 3.7Q-1.5 3.7 -2.6 2.6Q-3.7 1.5 -3.7 0.05Q-3.7 -1.5 -2.6 -2.6Q-1.5 -3.7 0 -3.7Q1.55 -3.7 2.65 -2.6" />
</g>
<g id="PathID_25" transform="matrix(1.74313, 0, 0, 1.74313, 96.4, 33.95)" opacity="1">
<path style="fill:#0095DA;fill-opacity:0.6" d="M2.65 -2.6Q3.75 -1.5 3.75 0.05Q3.75 1.5 2.65 2.6Q1.55 3.7 0 3.7Q-1.5 3.7 -2.6 2.6Q-3.7 1.5 -3.7 0.05Q-3.7 -1.5 -2.6 -2.6Q-1.5 -3.7 0 -3.7Q1.55 -3.7 2.65 -2.6" />
</g>
<g id="PathID_26" transform="matrix(1.76547, 0, 0, 1.76547, 78.45, 46.55)" opacity="1">
<path style="fill:#0095DA;fill-opacity:0.6" d="M2.65 -2.6Q3.75 -1.5 3.75 0.05Q3.75 1.5 2.65 2.6Q1.55 3.7 0 3.7Q-1.5 3.7 -2.6 2.6Q-3.7 1.5 -3.7 0.05Q-3.7 -1.5 -2.6 -2.6Q-1.5 -3.7 0 -3.7Q1.55 -3.7 2.65 -2.6" />
</g>
<g id="PathID_27" transform="matrix(0.916241, 0, 0, 0.916241, 105.8, 28.9)" opacity="1">
<path style="fill:#0095DA;fill-opacity:0.6" d="M2.05 -2.05Q2.9 -1.15 2.9 0.05Q2.9 1.15 2.05 2.05Q1.2 2.9 0 2.9Q-1.15 2.9 -2.05 2.05Q-2.9 1.15 -2.9 0.05Q-2.9 -1.15 -2.05 -2.05Q-1.15 -2.9 0 -2.9Q1.2 -2.9 2.05 -2.05" />
</g>
<g id="PathID_28" transform="matrix(2.77111, 0, 0, 2.77111, 75.85, 63.05)" opacity="1">
<path style="fill:#0095DA;fill-opacity:0.6" d="M2.1 -2.05Q2.95 -1.2 2.95 0.05Q2.95 1.2 2.1 2.05Q1.2 2.9 0 2.9Q-1.2 2.9 -2.05 2.05Q-2.9 1.2 -2.9 0.05Q-2.9 -1.2 -2.05 -2.05Q-1.2 -2.9 0 -2.9Q1.2 -2.9 2.1 -2.05" />
</g>
<g id="PathID_29" transform="matrix(3.01695, 0, 0, 3.01695, 68.9, 55)" opacity="1">
<path style="fill:#0095DA;fill-opacity:0.6" d="M2.1 -2.05Q2.95 -1.2 2.95 0.05Q2.95 1.2 2.1 2.05Q1.2 2.9 0 2.9Q-1.2 2.9 -2.05 2.05Q-2.9 1.2 -2.9 0.05Q-2.9 -1.2 -2.05 -2.05Q-1.2 -2.9 0 -2.9Q1.2 -2.9 2.1 -2.05" />
</g>
<g id="PathID_30" transform="matrix(2.23479, 0, 0, 2.23479, 52.8, 124.85)" opacity="1">
<path style="fill:#0095DA;fill-opacity:0.6" d="M1.85 -1.8Q2.65 -1.05 2.65 0.05Q2.65 1.05 1.85 1.8Q1.05 2.6 0 2.6Q-1.05 2.6 -1.8 1.8Q-2.6 1.05 -2.6 0.05Q-2.6 -1.05 -1.8 -1.8Q-1.05 -2.6 0 -2.6Q1.05 -2.6 1.85 -1.8" />
</g>
<g id="PathID_31" transform="matrix(2.61469, 0, 0, 2.61469, 60.15, 116.2)" opacity="1">
<path style="fill:#0095DA;fill-opacity:0.6" d="M1.85 -1.8Q2.65 -1.05 2.65 0.05Q2.65 1.05 1.85 1.8Q1.05 2.6 0 2.6Q-1.05 2.6 -1.8 1.8Q-2.6 1.05 -2.6 0.05Q-2.6 -1.05 -1.8 -1.8Q-1.05 -2.6 0 -2.6Q1.05 -2.6 1.85 -1.8" />
</g>
<g id="PathID_32" transform="matrix(2.07834, 0, 0, 2.07834, 146.45, 179.25)" opacity="1">
<path style="fill:#0095DA;fill-opacity:0.6" d="M1.35 -1.35Q1.9 -0.75 1.9 0.05Q1.9 0.75 1.35 1.35Q0.8 1.9 0 1.9Q-0.75 1.9 -1.35 1.35Q-1.9 0.75 -1.9 0.05Q-1.9 -0.75 -1.35 -1.35Q-0.75 -1.9 0 -1.9Q0.8 -1.9 1.35 -1.35" />
</g>
<g id="PathID_33" transform="matrix(2.23479, 0, 0, 2.23479, 87.6, 131.4)" opacity="1">
<path style="fill:#0095DA;fill-opacity:0.6" d="M1.25 -1.25Q1.75 -0.7 1.75 0.05Q1.75 0.7 1.25 1.25Q0.75 1.75 0 1.75Q-0.7 1.75 -1.25 1.25Q-1.75 0.7 -1.75 0.05Q-1.75 -0.7 -1.25 -1.25Q-0.7 -1.75 0 -1.75Q0.75 -1.75 1.25 -1.25" />
</g>
<g id="PathID_34" transform="matrix(2.23479, 0, 0, 2.23479, 101.95, 156.75)" opacity="1">
<path style="fill:#0095DA;fill-opacity:0.6" d="M1.25 -1.25Q1.75 -0.7 1.75 0.05Q1.75 0.7 1.25 1.25Q0.75 1.75 0 1.75Q-0.7 1.75 -1.25 1.25Q-1.75 0.7 -1.75 0.05Q-1.75 -0.7 -1.25 -1.25Q-0.7 -1.75 0 -1.75Q0.75 -1.75 1.25 -1.25" />
</g>
<g id="PathID_35" transform="matrix(2.23479, 0, 0, 2.23479, 110.9, 157.1)" opacity="1">
<path style="fill:#0095DA;fill-opacity:0.6" d="M1.35 -1.35Q1.9 -0.75 1.9 0.05Q1.9 0.75 1.35 1.35Q0.8 1.9 0 1.9Q-0.75 1.9 -1.35 1.35Q-1.9 0.75 -1.9 0.05Q-1.9 -0.75 -1.35 -1.35Q-0.75 -1.9 0 -1.9Q0.8 -1.9 1.35 -1.35" />
</g>
<g id="PathID_36" transform="matrix(2.23479, 0, 0, 2.23479, 158.55, 35.1)" opacity="1">
<path style="fill:#0095DA;fill-opacity:0.6" d="M2.1 -2.05Q2.95 -1.2 2.95 0.05Q2.95 1.2 2.1 2.05Q1.2 2.9 0 2.9Q-1.2 2.9 -2.05 2.05Q-2.9 1.2 -2.9 0.05Q-2.9 -1.2 -2.05 -2.05Q-1.2 -2.9 0 -2.9Q1.2 -2.9 2.1 -2.05" />
</g>
<g id="PathID_37" transform="matrix(3.18867, 0, 0, 3.1614, 134.05, 41.15)" opacity="1">
<path style="fill:#0095DA;fill-opacity:0.6" d="M1.45 -1.45Q2.05 -0.85 2.05 0Q2.05 0.85 1.45 1.45Q0.85 2.05 0 2.05Q-0.85 2.05 -1.45 1.45Q-2.05 0.85 -2.05 0Q-2.05 -0.85 -1.45 -1.45Q-0.85 -2.05 0 -2.05Q0.85 -2.05 1.45 -1.45" />
</g>
<g id="PathID_38" transform="matrix(2.23479, 0, 0, 2.23479, 147.25, 48.15)" opacity="1">
<path style="fill:#0095DA;fill-opacity:0.6" d="M2.1 -2.05Q2.95 -1.2 2.95 0.05Q2.95 1.2 2.1 2.05Q1.2 2.9 0 2.9Q-1.2 2.9 -2.05 2.05Q-2.9 1.2 -2.9 0.05Q-2.9 -1.2 -2.05 -2.05Q-1.2 -2.9 0 -2.9Q1.2 -2.9 2.1 -2.05" />
</g>
<g id="PathID_39" transform="matrix(2.23479, 0, 0, 2.23479, 62.15, 68.8)" opacity="1">
<path style="fill:#0095DA;fill-opacity:0.6" d="M2.1 -2.05Q2.95 -1.2 2.95 0.05Q2.95 1.2 2.1 2.05Q1.2 2.9 0 2.9Q-1.2 2.9 -2.05 2.05Q-2.9 1.2 -2.9 0.05Q-2.9 -1.2 -2.05 -2.05Q-1.2 -2.9 0 -2.9Q1.2 -2.9 2.1 -2.05" />
</g>
<g id="PathID_40" transform="matrix(2.88286, 0, 0, 2.88286, 72.4, 106.75)" opacity="1">
<path style="fill:#0095DA;fill-opacity:0.6" d="M1.55 -1.55Q2.25 -0.9 2.25 0.05Q2.25 0.9 1.55 1.55Q0.95 2.25 0 2.25Q-0.9 2.25 -1.55 1.55Q-2.25 0.9 -2.25 0.05Q-2.25 -0.9 -1.55 -1.55Q-0.9 -2.25 0 -2.25Q0.95 -2.25 1.55 -1.55" />
</g>
<g id="PathID_41" transform="matrix(2.23479, 0, 0, 2.23479, 172.35, 67.55)" opacity="1">
<path style="fill:#0095DA;fill-opacity:0.6" d="M1.35 -1.35Q1.9 -0.75 1.9 0.05Q1.9 0.75 1.35 1.35Q0.8 1.9 0 1.9Q-0.75 1.9 -1.35 1.35Q-1.9 0.75 -1.9 0.05Q-1.9 -0.75 -1.35 -1.35Q-0.75 -1.9 0 -1.9Q0.8 -1.9 1.35 -1.35" />
</g>
<g id="PathID_42" transform="matrix(2.23479, 0, 0, 2.23479, 158.75, 53.75)" opacity="1">
<path style="fill:#0095DA;fill-opacity:0.6" d="M1.35 -1.35Q1.9 -0.75 1.9 0.05Q1.9 0.75 1.35 1.35Q0.8 1.9 0 1.9Q-0.75 1.9 -1.35 1.35Q-1.9 0.75 -1.9 0.05Q-1.9 -0.75 -1.35 -1.35Q-0.75 -1.9 0 -1.9Q0.8 -1.9 1.35 -1.35" />
</g>
<g id="PathID_43" transform="matrix(2.99458, 0, 0, 2.99458, 169.95, 46.7)" opacity="1">
<path style="fill:#0095DA;fill-opacity:0.6" d="M2.1 -2.05Q2.95 -1.2 2.95 0.05Q2.95 1.2 2.1 2.05Q1.2 2.9 0 2.9Q-1.2 2.9 -2.05 2.05Q-2.9 1.2 -2.9 0.05Q-2.9 -1.2 -2.05 -2.05Q-1.2 -2.9 0 -2.9Q1.2 -2.9 2.1 -2.05" />
</g>
<g id="PathID_44" transform="matrix(2.23479, 0, 0, 2.23479, 162.1, 149.95)" opacity="1">
<path style="fill:#0095DA;fill-opacity:0.6" d="M1.35 -1.35Q1.9 -0.75 1.9 0.05Q1.9 0.75 1.35 1.35Q0.8 1.9 0 1.9Q-0.75 1.9 -1.35 1.35Q-1.9 0.75 -1.9 0.05Q-1.9 -0.75 -1.35 -1.35Q-0.75 -1.9 0 -1.9Q0.8 -1.9 1.35 -1.35" />
</g>
<g id="PathID_45" transform="matrix(2.23479, 0, 0, 2.23479, 171.7, 166.25)" opacity="1">
<path style="fill:#0095DA;fill-opacity:0.6" d="M2.1 -2.05Q2.95 -1.2 2.95 0Q2.95 1.2 2.1 2.05Q1.2 2.95 0 2.95Q-1.2 2.95 -2.05 2.05Q-2.95 1.2 -2.95 0Q-2.95 -1.2 -2.05 -2.05Q-1.2 -2.95 0 -2.95Q1.2 -2.95 2.1 -2.05" />
</g>
<g id="PathID_46" transform="matrix(2.23479, 0, 0, 2.23479, 139.35, 162.6)" opacity="1">
<path style="fill:#0095DA;fill-opacity:0.6" d="M2.1 -2.05Q2.95 -1.2 2.95 0Q2.95 1.2 2.1 2.05Q1.2 2.95 0 2.95Q-1.2 2.95 -2.05 2.05Q-2.95 1.2 -2.95 0Q-2.95 -1.2 -2.05 -2.05Q-1.2 -2.95 0 -2.95Q1.2 -2.95 2.1 -2.05" />
</g>
<g id="PathID_47" transform="matrix(2.65936, 0, 0, 2.65936, 173, 151.6)" opacity="1">
<path style="fill:#0095DA;fill-opacity:0.6" d="M1.35 -1.35Q1.9 -0.75 1.9 0.05Q1.9 0.75 1.35 1.35Q0.8 1.9 0 1.9Q-0.75 1.9 -1.35 1.35Q-1.9 0.75 -1.9 0.05Q-1.9 -0.75 -1.35 -1.35Q-0.75 -1.9 0 -1.9Q0.8 -1.9 1.35 -1.35" />
</g>
<g id="PathID_48" transform="matrix(2.23479, 0, 0, 2.23479, 104.9, 180.1)" opacity="1">
<path style="fill:#0095DA;fill-opacity:0.6" d="M1.35 -1.35Q1.9 -0.75 1.9 0.05Q1.9 0.75 1.35 1.35Q0.8 1.9 0 1.9Q-0.75 1.9 -1.35 1.35Q-1.9 0.75 -1.9 0.05Q-1.9 -0.75 -1.35 -1.35Q-0.75 -1.9 0 -1.9Q0.8 -1.9 1.35 -1.35" />
</g>
<g id="PathID_49" transform="matrix(0.837823, 0, 0, 0.837823, 69, 89.7)" opacity="1">
<path style="fill:#0095DA;fill-opacity:0.6" d="M16.85 -16.9Q23.85 -9.9 23.85 0Q23.85 9.9 16.85 16.85Q9.9 23.85 0 23.85Q-9.9 23.85 -16.9 16.85Q-23.85 9.9 -23.85 0Q-23.85 -9.9 -16.9 -16.9Q-9.9 -23.85 0 -23.85Q9.9 -23.85 16.85 -16.9" />
</g>
<g id="PathID_50" transform="matrix(0.837823, 0, 0, 0.837823, 119.4, 37.5)" opacity="1">
<path style="fill:#0095DA;fill-opacity:0.6" d="M12.1 -12.15Q17.15 -7.1 17.15 0Q17.15 7.1 12.1 12.1Q7.1 17.15 0 17.15Q-7.1 17.15 -12.15 12.1Q-17.15 7.1 -17.15 0Q-17.15 -7.1 -12.15 -12.15Q-7.1 -17.15 0 -17.15Q7.1 -17.15 12.1 -12.15" />
</g>
<g id="PathID_51" transform="matrix(0.837823, 0, 0, 0.837823, 136.25, 24.35)" opacity="1">
<path style="fill:#0095DA;fill-opacity:0.6" d="M3.65 -3.6Q5.1 -2 5.1 0.15Q5.1 2 3.65 3.6Q2.15 5.05 0.05 5.05Q-1.95 5.05 -3.55 3.6Q-5.05 2 -5.05 0.15Q-5.05 -2 -3.55 -3.6Q-1.95 -5.05 0.05 -5.05Q2.15 -5.05 3.65 -3.6" />
</g>
<g id="PathID_52" transform="matrix(0.837823, 0, 0, 0.837823, 51.75, 63.3)" opacity="1">
<path style="fill:#0095DA;fill-opacity:0.6" d="M-0.05 -2.85Q1.15 -2.85 1.95 -2.05Q2.9 -1.15 2.9 0.05Q2.9 1.25 1.95 2.05Q1.15 2.85 -0.05 2.85Q-1.25 2.85 -2.05 2.05Q-2.85 1.25 -2.85 0.05Q-2.85 -1.15 -2.05 -2.05Q-1.25 -2.85 -0.05 -2.85" />
</g>
<g id="PathID_53" transform="matrix(0.837823, 0, 0, 0.837823, 168.55, 28.95)" opacity="1">
<path style="fill:#0095DA;fill-opacity:0.6" d="M1.6 -1.6Q2.25 -0.95 2.25 0Q2.25 0.95 1.6 1.6Q0.95 2.25 0 2.25Q-0.95 2.25 -1.6 1.6Q-2.25 0.95 -2.25 0Q-2.25 -0.95 -1.6 -1.6Q-0.95 -2.25 0 -2.25Q0.95 -2.25 1.6 -1.6" />
</g>
<g id="PathID_54" transform="matrix(0.837823, 0, 0, 0.837823, 169.75, 133.15)" opacity="1">
<path style="fill:#0095DA;fill-opacity:0.6" d="M1.4 -1.45Q2 -0.85 2 0Q2 0.85 1.4 1.4Q0.85 2 0 2Q-0.85 2 -1.45 1.4Q-2 0.85 -2 0Q-2 -0.85 -1.45 -1.45Q-0.85 -2 0 -2Q0.85 -2 1.4 -1.45" />
</g>
<g id="PathID_55" transform="matrix(0.837823, 0, 0, 0.837823, 171.9, 137.8)" opacity="1">
<path style="fill:#0095DA;fill-opacity:0.6" d="M1.7 -1.75Q2.45 -1 2.45 0Q2.45 1 1.7 1.7Q1 2.45 0 2.45Q-1 2.45 -1.75 1.7Q-2.45 1 -2.45 0Q-2.45 -1 -1.75 -1.75Q-1 -2.45 0 -2.45Q1 -2.45 1.7 -1.75" />
</g>
<g id="PathID_56" transform="matrix(0.837823, 0, 0, 0.837823, 126.5, 20.05)" opacity="1">
<path style="fill:#0095DA;fill-opacity:0.6" d="M2.6 -2.65Q3.7 -1.55 3.7 0Q3.7 1.55 2.6 2.6Q1.55 3.7 0 3.7Q-1.55 3.7 -2.65 2.6Q-3.7 1.55 -3.7 0Q-3.7 -1.55 -2.65 -2.65Q-1.55 -3.7 0 -3.7Q1.55 -3.7 2.6 -2.65" />
</g>
<g id="PathID_57" transform="matrix(0.837823, 0, 0, 0.837823, 130.3, 13.75)" opacity="1">
<path style="fill:#0095DA;fill-opacity:0.6" d="M1.7 -1.75Q2.45 -1 2.45 0Q2.45 1 1.7 1.7Q1 2.45 0 2.45Q-1 2.45 -1.75 1.7Q-2.45 1 -2.45 0Q-2.45 -1 -1.75 -1.75Q-1 -2.45 0 -2.45Q1 -2.45 1.7 -1.75" />
</g>
<g id="PathID_58" transform="matrix(0.837823, 0, 0, 0.837823, 136.05, 11.75)" opacity="1">
<path style="fill:#0095DA;fill-opacity:0.6" d="M1.45 -1.45Q2.05 -0.85 2.05 0Q2.05 0.85 1.45 1.45Q0.85 2.05 0 2.05Q-0.85 2.05 -1.45 1.45Q-2.05 0.85 -2.05 0Q-2.05 -0.85 -1.45 -1.45Q-0.85 -2.05 0 -2.05Q0.85 -2.05 1.45 -1.45" />
</g>
<g id="PathID_59" transform="matrix(0.837823, 0, 0, 0.837823, 145.35, 23.85)" opacity="1">
<path style="fill:#0095DA;fill-opacity:0.6" d="M1.75 -1.8Q2.5 -1.05 2.5 0Q2.5 1.05 1.75 1.75Q1.05 2.5 0 2.5Q-1.05 2.5 -1.8 1.75Q-2.5 1.05 -2.5 0Q-2.5 -1.05 -1.8 -1.8Q-1.05 -2.5 0 -2.5Q1.05 -2.5 1.75 -1.8" />
</g>
<g id="PathID_60" transform="matrix(0.837823, 0, 0, 0.837823, 171.6, 34.55)" opacity="1">
<path style="fill:#0095DA;fill-opacity:0.6" d="M2.45 -2.45Q3.45 -1.45 3.45 0Q3.45 1.45 2.45 2.45Q1.45 3.45 0 3.45Q-1.45 3.45 -2.45 2.45Q-3.45 1.45 -3.45 0Q-3.45 -1.45 -2.45 -2.45Q-1.45 -3.45 0 -3.45Q1.45 -3.45 2.45 -2.45" />
</g>
<g id="PathID_61" transform="matrix(0.837823, 0, 0, 0.837823, 157.35, 45.6)" opacity="1">
<path style="fill:#0095DA;fill-opacity:0.6" d="M1.95 -1.95Q2.75 -1.15 2.75 0Q2.75 1.15 1.95 1.95Q1.15 2.75 0 2.75Q-1.15 2.75 -1.95 1.95Q-2.75 1.15 -2.75 0Q-2.75 -1.15 -1.95 -1.95Q-1.15 -2.75 0 -2.75Q1.15 -2.75 1.95 -1.95" />
</g>
<g id="PathID_62" transform="matrix(0.837823, 0, 0, 0.837823, 100.45, 24.3)" opacity="1">
<path style="fill:#0095DA;fill-opacity:0.6" d="M1.35 -1.35Q1.9 -0.8 1.9 0Q1.9 0.8 1.35 1.35Q0.8 1.9 0 1.9Q-0.8 1.9 -1.35 1.35Q-1.9 0.8 -1.9 0Q-1.9 -0.8 -1.35 -1.35Q-0.8 -1.9 0 -1.9Q0.8 -1.9 1.35 -1.35" />
</g>
<g id="PathID_63" transform="matrix(0.837823, 0, 0, 0.837823, 51.55, 70.25)" opacity="1">
<path style="fill:#0095DA;fill-opacity:0.6" d="M2.85 -2.9Q4.05 -1.7 4.05 0Q4.05 1.7 2.85 2.85Q1.7 4.05 0 4.05Q-1.7 4.05 -2.9 2.85Q-4.05 1.7 -4.05 0Q-4.05 -1.7 -2.9 -2.9Q-1.7 -4.05 0 -4.05Q1.7 -4.05 2.85 -2.9" />
</g>
<g id="PathID_64" transform="matrix(0.837823, 0, 0, 0.837823, 85.2, 110.35)" opacity="1">
<path style="fill:#0095DA;fill-opacity:0.6" d="M2.15 -2.15Q3.05 -1.25 3.05 0Q3.05 1.25 2.15 2.15Q1.25 3.05 0 3.05Q-1.25 3.05 -2.15 2.15Q-3.05 1.25 -3.05 0Q-3.05 -1.25 -2.15 -2.15Q-1.25 -3.05 0 -3.05Q1.25 -3.05 2.15 -2.15" />
</g>
<g id="PathID_65" transform="matrix(0.837823, 0, 0, 0.837823, 51.1, 140.75)" opacity="1">
<path style="fill:#0095DA;fill-opacity:0.6" d="M1.45 -1.45Q2.05 -0.85 2.05 0Q2.05 0.85 1.45 1.45Q0.85 2.05 0 2.05Q-0.85 2.05 -1.45 1.45Q-2.05 0.85 -2.05 0Q-2.05 -0.85 -1.45 -1.45Q-0.85 -2.05 0 -2.05Q0.85 -2.05 1.45 -1.45" />
</g>
<g id="PathID_66" transform="matrix(0.837823, 0, 0, 0.837823, 53.95, 134.75)" opacity="1">
<path style="fill:#0095DA;fill-opacity:0.6" d="M2.25 -2.3Q3.2 -1.35 3.2 0Q3.2 1.35 2.25 2.25Q1.35 3.2 0 3.2Q-1.35 3.2 -2.3 2.25Q-3.2 1.35 -3.2 0Q-3.2 -1.35 -2.3 -2.3Q-1.35 -3.2 0 -3.2Q1.35 -3.2 2.25 -2.3" />
</g>
<g id="PathID_67" transform="matrix(0.837823, 0, 0, 0.837823, 83.3, 173.7)" opacity="1">
<path style="fill:#0095DA;fill-opacity:0.6" d="M2.65 -2.65Q3.75 -1.55 3.75 0Q3.75 1.55 2.65 2.65Q1.55 3.75 0 3.75Q-1.55 3.75 -2.65 2.65Q-3.75 1.55 -3.75 0Q-3.75 -1.55 -2.65 -2.65Q-1.55 -3.75 0 -3.75Q1.55 -3.75 2.65 -2.65" />
</g>
<g id="PathID_68" transform="matrix(0.837823, 0, 0, 0.837823, 168.3, 143.5)" opacity="1">
<path style="fill:#0095DA;fill-opacity:0.6" d="M2.45 -2.5Q3.5 -1.45 3.5 0Q3.5 1.45 2.45 2.45Q1.45 3.5 0 3.5Q-1.45 3.5 -2.5 2.45Q-3.5 1.45 -3.5 0Q-3.5 -1.45 -2.5 -2.5Q-1.45 -3.5 0 -3.5Q1.45 -3.5 2.45 -2.5" />
</g>
<g id="PathID_69" transform="matrix(0.234375, 0, 0, 0.234375, 147.05, 254.4)" opacity="1">
<path style="fill:#920883;fill-opacity:1" d="M8.65 0L0.25 -26.55L7.05 -26.55L12.05 -9.15L16.65 -26.55L23.45 -26.55L27.85 -9.15L32.95 -26.55L39.9 -26.55L31.35 0L24.6 0L20 -17.05L15.5 0L8.65 0" />
</g>
<g id="PathID_70" transform="matrix(0.234375, 0, 0, 0.234375, 156.35, 254.4)" opacity="1">
<path style="fill:#920883;fill-opacity:1" d="M19.05 -8.45L26.05 -7.25Q24.7 -3.4 21.75 -1.4Q18.85 0.6 14.5 0.6Q7.55 0.6 4.25 -3.9Q1.65 -7.55 1.65 -13.05Q1.65 -19.65 5.1 -23.4Q8.55 -27.15 13.8 -27.15Q19.75 -27.15 23.15 -23.2Q26.6 -19.3 26.45 -11.25L8.85 -11.25Q8.9 -8.1 10.5 -6.35Q12.15 -4.65 14.55 -4.65Q16.2 -4.65 17.3 -5.55Q18.45 -6.45 19.05 -8.45M19.45 -15.55Q19.35 -18.55 17.85 -20.15Q16.35 -21.75 14.2 -21.75Q11.9 -21.75 10.4 -20.05Q8.95 -18.4 8.95 -15.55L19.45 -15.55" />
</g>
<g id="PathID_71" transform="matrix(0.234375, 0, 0, 0.234375, 163, 254.4)" opacity="1">
<path style="fill:#920883;fill-opacity:1" d="M3.4 0L3.4 -36.65L10.45 -36.65L10.45 -23.45Q13.65 -27.15 18.1 -27.15Q22.95 -27.15 26.1 -23.6Q29.3 -20.1 29.3 -13.55Q29.3 -6.75 26.05 -3.05Q22.8 0.6 18.2 0.6Q15.95 0.6 13.7 -0.5Q11.5 -1.65 9.95 -3.9L9.95 0L3.4 0M10.35 -13.8Q10.35 -9.7 11.65 -7.7Q13.45 -4.95 16.5 -4.95Q18.8 -4.95 20.45 -6.9Q22.1 -8.9 22.1 -13.15Q22.1 -17.7 20.45 -19.7Q18.8 -21.75 16.2 -21.75Q13.7 -21.75 12 -19.75Q10.35 -17.8 10.35 -13.8" />
</g>
<g id="PathID_72" transform="matrix(0.234375, 0, 0, 0.234375, 173.6, 254.4)" opacity="1">
<path style="fill:#920883;fill-opacity:1" d="M5 -14.35L5 -21.4L12.05 -21.4L12.05 -14.35L5 -14.35" />
</g>
<g id="PathID_73" transform="matrix(0.234375, 0, 0, 0.234375, 180.85, 254.4)" opacity="1">
<path style="fill:#920883;fill-opacity:1" d="M8.95 -18.35L2.6 -19.5Q3.65 -23.4 6.25 -25.25Q8.9 -27.15 14.05 -27.15Q18.75 -27.15 21.05 -26Q23.35 -24.9 24.3 -23.2Q25.25 -21.5 25.25 -16.9L25.15 -8.7Q25.15 -5.2 25.45 -3.55Q25.8 -1.9 26.75 0L19.8 0Q19.5 -0.7 19.1 -2.05L18.85 -2.9Q17.05 -1.15 15 -0.25Q12.95 0.6 10.65 0.6Q6.55 0.6 4.2 -1.6Q1.85 -3.8 1.85 -7.2Q1.85 -9.45 2.9 -11.2Q3.95 -12.95 5.9 -13.85Q7.85 -14.8 11.45 -15.5Q16.4 -16.45 18.3 -17.25L18.3 -17.95Q18.3 -20 17.3 -20.85Q16.3 -21.75 13.55 -21.75Q11.65 -21.75 10.6 -20.95Q9.55 -20.2 8.95 -18.35M18.3 -12.65Q16.95 -12.2 14.05 -11.55Q11.15 -10.95 10.25 -10.35Q8.9 -9.4 8.9 -7.9Q8.9 -6.45 9.95 -5.4Q11.05 -4.35 12.75 -4.35Q14.65 -4.35 16.35 -5.55Q17.6 -6.5 18 -7.85Q18.3 -8.75 18.3 -11.25L18.3 -12.65" />
</g>
<g id="PathID_74" transform="matrix(0.234375, 0, 0, 0.234375, 187.5, 254.4)" opacity="1">
<path style="fill:#920883;fill-opacity:1" d="M3.5 -26.55L10.05 -26.55L10.05 -22.65Q11.3 -24.65 13.45 -25.9Q15.65 -27.15 18.3 -27.15Q22.95 -27.15 26.15 -23.5Q29.4 -19.9 29.4 -13.4Q29.4 -6.75 26.15 -3.05Q22.9 0.6 18.25 0.6Q16.05 0.6 14.25 -0.25Q12.5 -1.15 10.55 -3.25L10.55 10.1L3.5 10.1L3.5 -26.55M10.45 -13.7Q10.45 -9.25 12.2 -7.1Q13.95 -5 16.5 -5Q18.95 -5 20.55 -6.95Q22.2 -8.9 22.2 -13.35Q22.2 -17.55 20.5 -19.55Q18.85 -21.6 16.4 -21.6Q13.8 -21.6 12.1 -19.6Q10.45 -17.6 10.45 -13.7" />
</g>
<g id="PathID_75" transform="matrix(0.234375, 0, 0, 0.234375, 194.8, 254.4)" opacity="1">
<path style="fill:#920883;fill-opacity:1" d="M3.5 -26.55L10.05 -26.55L10.05 -22.65Q11.3 -24.65 13.45 -25.9Q15.65 -27.15 18.3 -27.15Q22.95 -27.15 26.15 -23.5Q29.4 -19.9 29.4 -13.4Q29.4 -6.75 26.15 -3.05Q22.9 0.6 18.25 0.6Q16.05 0.6 14.25 -0.25Q12.5 -1.15 10.55 -3.25L10.55 10.1L3.5 10.1L3.5 -26.55M10.45 -13.7Q10.45 -9.25 12.2 -7.1Q13.95 -5 16.5 -5Q18.95 -5 20.55 -6.95Q22.2 -8.9 22.2 -13.35Q22.2 -17.55 20.5 -19.55Q18.85 -21.6 16.4 -21.6Q13.8 -21.6 12.1 -19.6Q10.45 -17.6 10.45 -13.7" />
</g>
<g id="PathID_76" transform="matrix(0.234375, 0, 0, 0.234375, 205.4, 254.4)" opacity="1">
<path style="fill:#920883;fill-opacity:1" d="M5 -14.35L5 -21.4L12.05 -21.4L12.05 -14.35L5 -14.35" />
</g>
<g id="PathID_77" transform="matrix(0.234375, 0, 0, 0.234375, 212.65, 254.4)" opacity="1">
<path style="fill:#920883;fill-opacity:1" d="M15.9 -26.55L15.9 -20.95L11.1 -20.95L11.1 -10.25Q11.1 -7 11.2 -6.45Q11.35 -5.9 11.85 -5.55Q12.35 -5.25 13.05 -5.25Q14 -5.25 15.85 -5.9L16.5 -0.45Q14 0.6 10.9 0.6Q9 0.6 7.45 0Q5.95 -0.65 5.25 -1.65Q4.55 -2.7 4.25 -4.4Q4.05 -5.65 4.05 -9.35L4.05 -20.95L0.8 -20.95L0.8 -26.55L4.05 -26.55L4.05 -31.85L11.1 -36L11.1 -26.55L15.9 -26.55" />
</g>
<g id="PathID_78" transform="matrix(0.234375, 0, 0, 0.234375, 216.6, 254.4)" opacity="1">
<path style="fill:#920883;fill-opacity:1" d="M19.05 -8.45L26.05 -7.25Q24.7 -3.4 21.75 -1.4Q18.85 0.6 14.5 0.6Q7.55 0.6 4.25 -3.9Q1.65 -7.55 1.65 -13.05Q1.65 -19.65 5.1 -23.4Q8.55 -27.15 13.8 -27.15Q19.75 -27.15 23.15 -23.2Q26.6 -19.3 26.45 -11.25L8.85 -11.25Q8.9 -8.1 10.5 -6.35Q12.15 -4.65 14.55 -4.65Q16.2 -4.65 17.3 -5.55Q18.45 -6.45 19.05 -8.45M19.45 -15.55Q19.35 -18.55 17.85 -20.15Q16.35 -21.75 14.2 -21.75Q11.9 -21.75 10.4 -20.05Q8.95 -18.4 8.95 -15.55L19.45 -15.55" />
</g>
<g id="PathID_79" transform="matrix(0.234375, 0, 0, 0.234375, 223.25, 254.4)" opacity="1">
<path style="fill:#920883;fill-opacity:1" d="M26.85 -18.7L19.9 -17.45Q19.55 -19.5 18.3 -20.55Q17.05 -21.6 15.1 -21.6Q12.45 -21.6 10.9 -19.75Q9.35 -17.95 9.35 -13.7Q9.35 -9 10.9 -7.05Q12.5 -5.15 15.2 -5.15Q17.2 -5.15 18.45 -6.25Q19.75 -7.4 20.3 -10.2L27.2 -9Q26.1 -4.25 23.05 -1.8Q20 0.6 14.9 0.6Q9.05 0.6 5.6 -3.05Q2.15 -6.75 2.15 -13.25Q2.15 -19.8 5.6 -23.45Q9.1 -27.15 15 -27.15Q19.85 -27.15 22.7 -25.05Q25.6 -22.95 26.85 -18.7" />
</g>
<g id="PathID_80" transform="matrix(0.234375, 0, 0, 0.234375, 229.9, 254.4)" opacity="1">
<path style="fill:#920883;fill-opacity:1" d="M10.65 -36.65L10.65 -23.1Q14.05 -27.15 18.75 -27.15Q21.2 -27.15 23.15 -26.25Q25.1 -25.35 26.05 -23.95Q27.05 -22.55 27.4 -20.85Q27.8 -19.15 27.8 -15.55L27.8 0L20.75 0L20.75 -14Q20.75 -18.15 20.35 -19.25Q19.95 -20.4 18.9 -21.05Q17.9 -21.75 16.4 -21.75Q14.65 -21.75 13.25 -20.9Q11.9 -20.05 11.25 -18.3Q10.65 -16.6 10.65 -13.25L10.65 0L3.6 0L3.6 -36.65L10.65 -36.65" />
</g>
</svg>
